<svg width="91" height="78" viewBox="0 0 91 78" fill="none" xmlns="http://www.w3.org/2000/svg">
<path d="M64.434 58.191C63.887 58.191 63.671 58.418 63.226 58.854C62.434 59.842 60.977 61.706 58.526 64.116C54.492 68.196 51.708 70.189 49.853 70.189L49.439 70.153C48.138 69.832 47.931 68.727 47.952 67.627C47.982 66.203 48.441 64.894 48.808 63.585C51.828 54.354 56.254 45.813 60.041 36.927C62.103 32.198 64.481 27.585 66.107 22.761C66.805 21.014 67.281 19.038 67.315 17.18C67.377 14.103 65.327 12.242 62.823 11.693L62.444 11.634C61.879 11.634 62.188 12.261 61.69 14.427C61.438 15.85 60.971 17.275 60.51 18.698C58.409 25.401 55.111 31.436 52.156 37.363L51.255 39.108L51.154 38.444C50.556 35.047 46.887 32.976 43.498 32.976C38.688 32.976 34.696 35.938 31.336 39.222C26.994 43.494 23.589 49.306 21.858 54.583C18.71 64.664 17.687 77.292 29.057 77.5C32.126 77.5 35.782 75.315 39.254 70.929L39.915 70.153C39.914 70.266 39.905 70.589 39.899 70.819C39.839 74.004 41.65 77.404 45.035 77.404C48.971 77.404 53.413 73.89 60.222 66.317C62.137 64.229 63.708 62.254 64.726 60.507C64.95 59.954 65.182 59.518 65.186 59.197C65.201 58.531 64.871 58.191 64.434 58.191ZM40.621 62.254C38.933 65.216 36.477 67.852 34.69 69.394C33.649 70.227 32.678 70.588 31.807 70.588C29.706 70.588 28.291 68.406 28.428 65.216C28.702 57.109 32.459 48.772 37.962 42.299C39.626 40.416 41.431 38.12 44.156 38.12C46.465 38.12 47.63 39.544 47.579 42.183C47.439 49.306 44.355 56.121 40.621 62.254ZM37.02 9.061L41.978 7.76C42.708 7.569 43.458 6.819 43.648 6.087L44.945 1.11C45.131 0.382999 45.442 0.382999 45.633 1.11L46.93 6.087C47.122 6.818 47.868 7.569 48.597 7.76L53.557 9.061C54.283 9.249 54.283 9.562 53.557 9.753L48.597 11.051C47.868 11.244 47.122 11.995 46.93 12.723L45.633 17.698C45.443 18.427 45.131 18.427 44.945 17.698L43.648 12.723C43.458 11.994 42.708 11.244 41.978 11.051L37.02 9.753C36.294 9.562 36.294 9.249 37.02 9.061ZM22.722 44.771L19.644 32.961C19.137 31.015 17.137 29.009 15.194 28.499L1.952 25.026C0.016 24.518 0.016 23.687 1.952 23.177L15.195 19.705C17.138 19.197 19.138 17.188 19.645 15.244L23.105 1.96C23.612 0.0139997 24.441 0.0139997 24.949 1.96L28.412 15.244C28.917 17.188 30.92 19.197 32.859 19.705L46.103 23.177C48.041 23.687 48.041 24.518 46.103 25.026L32.859 28.499C30.921 29.009 28.918 31.015 28.412 32.961L26.83 39.035C25.336 40.782 23.948 42.72 22.722 44.771ZM81.785 48.369L89.638 50.43C90.788 50.732 90.788 51.225 89.638 51.527L81.785 53.584C80.636 53.888 79.451 55.078 79.149 56.23L77.093 64.106C76.793 65.259 76.306 65.259 76.003 64.106L73.949 56.23C73.649 55.078 72.465 53.888 71.312 53.584L63.463 51.527C62.312 51.225 62.312 50.732 63.463 50.43L71.312 48.369C72.464 48.071 73.649 46.881 73.949 45.725L76.003 37.85C76.306 36.698 76.793 36.698 77.093 37.85L79.149 45.725C79.451 46.881 80.635 48.071 81.785 48.369Z" fill="black"/>
</svg>
